<?xml version="1.0" encoding="utf-8"?>
<!-- Generator: Adobe Illustrator 27.7.0, SVG Export Plug-In . SVG Version: 6.00 Build 0)  -->
<svg version="1.1" id="Layer_1" xmlns="http://www.w3.org/2000/svg" xmlns:xlink="http://www.w3.org/1999/xlink" x="0px" y="0px"
	 viewBox="0 0 512 512" style="enable-background:new 0 0 512 512;" xml:space="preserve">
<g>
	<path d="M426.67,71.11H28.44C12.73,71.11,0,83.85,0,99.56C0,115.26,12.73,128,28.44,128h398.22c15.71,0,28.44-12.74,28.44-28.44
		C455.11,83.85,442.38,71.11,426.67,71.11"/>
	<path d="M28.44,241.78h256c15.71,0,28.44-12.74,28.44-28.44s-12.74-28.44-28.44-28.44h-256C12.73,184.89,0,197.62,0,213.33
		S12.73,241.78,28.44,241.78"/>
	<path d="M199.11,298.67H28.44C12.73,298.67,0,311.4,0,327.11s12.73,28.44,28.44,28.44h170.67c15.71,0,28.44-12.74,28.44-28.44
		S214.82,298.67,199.11,298.67"/>
	<path d="M312.89,355.56h170.67c15.71,0,28.44-12.74,28.44-28.44s-12.74-28.44-28.44-28.44H312.89c-15.71,0-28.44,12.73-28.44,28.44
		S297.18,355.56,312.89,355.56"/>
	<path d="M369.78,241.78v170.67c0,15.71,12.73,28.44,28.44,28.44c15.71,0,28.44-12.74,28.44-28.44V241.78
		c0-15.71-12.74-28.44-28.44-28.44C382.51,213.33,369.78,226.07,369.78,241.78"/>
</g>
</svg>
